<svg xmlns="http://www.w3.org/2000/svg" viewBox="0 0 560 360" fill="none">
  <rect width="560" height="360" rx="12" fill="#0A1430"/>
  <rect x="16" y="16" width="528" height="40" rx="8" fill="rgba(255,255,255,0.05)" stroke="rgba(255,255,255,0.1)"/>
  <rect x="28" y="28" width="60" height="16" rx="3" fill="#1E3A8A"/>
  <rect x="16" y="68" width="528" height="60" rx="8" fill="rgba(255,255,255,0.03)" stroke="rgba(255,255,255,0.08)"/>
  <rect x="28" y="82" width="100" height="32" rx="6" fill="#0EA5E9" opacity="0.15"/>
  <text x="36" y="102" fill="#0EA5E9" font-family="system-ui" font-size="9">Properties</text>
  <rect x="140" y="82" width="100" height="32" rx="6" fill="rgba(255,255,255,0.05)"/>
  <text x="148" y="102" fill="#94A3B8" font-family="system-ui" font-size="9">Sales Pipeline</text>
  <rect x="16" y="140" width="340" height="204" rx="8" fill="rgba(255,255,255,0.03)" stroke="rgba(255,255,255,0.08)"/>
  <rect x="28" y="156" width="120" height="8" rx="2" fill="#E2E8F0" opacity="0.6"/>
  <rect x="28" y="176" width="300" height="12" rx="3" fill="rgba(14,165,233,0.2)"/>
  <rect x="28" y="200" width="280" height="12" rx="3" fill="rgba(14,165,233,0.15)"/>
  <rect x="28" y="224" width="260" height="12" rx="3" fill="rgba(14,165,233,0.1)"/>
  <rect x="368" y="140" width="176" height="204" rx="8" fill="rgba(255,255,255,0.03)" stroke="rgba(255,255,255,0.08)"/>
  <rect x="380" y="160" width="60" height="40" rx="4" fill="#10B981" opacity="0.2"/>
  <text x="390" y="185" fill="#10B981" font-family="system-ui" font-size="8">Revenue</text>
</svg>
