<svg xmlns="http://www.w3.org/2000/svg" viewBox="0 0 400 240" fill="none">
  <defs>
    <linearGradient id="bg" x1="0" y1="0" x2="400" y2="240"><stop stop-color="#0A1430"/><stop offset="1" stop-color="#241552"/></linearGradient>
    <radialGradient id="glow" cx="0.5" cy="0.4" r="0.6"><stop stop-color="#8B5CF6" stop-opacity="0.3"/><stop offset="1" stop-color="#8B5CF6" stop-opacity="0"/></radialGradient>
    <pattern id="dots" width="20" height="20" patternUnits="userSpaceOnUse"><circle cx="1" cy="1" r="1" fill="#ffffff" opacity="0.05"/></pattern>
  </defs>
  <rect width="400" height="240" fill="url(#bg)"/>
  <rect width="400" height="240" fill="url(#dots)"/>
  <ellipse cx="200" cy="110" rx="160" ry="100" fill="url(#glow)"/>
  <g stroke="#8B5CF6" stroke-width="1.5" opacity="0.5">
    <line x1="200" y1="120" x2="120" y2="70"/>
    <line x1="200" y1="120" x2="280" y2="70"/>
    <line x1="200" y1="120" x2="130" y2="170"/>
    <line x1="200" y1="120" x2="270" y2="170"/>
  </g>
  <rect x="178" y="98" width="44" height="44" rx="12" fill="#8B5CF6" opacity="0.2" stroke="#8B5CF6" stroke-width="1.5"/>
  <circle cx="192" cy="118" r="3" fill="#8B5CF6"/><circle cx="208" cy="118" r="3" fill="#8B5CF6"/>
  <path d="M192 128h16" stroke="#8B5CF6" stroke-width="1.5"/>
  <circle cx="120" cy="70" r="9" fill="#0A1430" stroke="#8B5CF6" stroke-width="1.5"/>
  <circle cx="280" cy="70" r="9" fill="#0A1430" stroke="#8B5CF6" stroke-width="1.5"/>
  <circle cx="130" cy="170" r="9" fill="#0A1430" stroke="#0EA5E9" stroke-width="1.5"/>
  <circle cx="270" cy="170" r="9" fill="#0A1430" stroke="#0EA5E9" stroke-width="1.5"/>
  <text x="32" y="212" fill="#94A3B8" font-family="system-ui,sans-serif" font-size="11" font-weight="600" letter-spacing="2">AGENTIC AI</text>
</svg>
