<svg xmlns="http://www.w3.org/2000/svg" viewBox="0 0 400 240" fill="none">
  <defs>
    <linearGradient id="bg" x1="0" y1="0" x2="400" y2="240"><stop stop-color="#0A1430"/><stop offset="1" stop-color="#16265c"/></linearGradient>
    <radialGradient id="glow" cx="0.5" cy="0.4" r="0.6"><stop stop-color="#1E3A8A" stop-opacity="0.4"/><stop offset="1" stop-color="#1E3A8A" stop-opacity="0"/></radialGradient>
    <pattern id="dots" width="20" height="20" patternUnits="userSpaceOnUse"><circle cx="1" cy="1" r="1" fill="#ffffff" opacity="0.05"/></pattern>
  </defs>
  <rect width="400" height="240" fill="url(#bg)"/>
  <rect width="400" height="240" fill="url(#dots)"/>
  <ellipse cx="200" cy="110" rx="160" ry="100" fill="url(#glow)"/>
  <path d="M150 118a26 26 0 0150-14 22 22 0 0136 18 20 20 0 01-6 39h-78a24 24 0 01-2-43z" fill="#0A1430" stroke="#3b6fd4" stroke-width="1.5"/>
  <g stroke="#0EA5E9" stroke-width="1.5" opacity="0.6">
    <line x1="170" y1="161" x2="170" y2="180"/><line x1="200" y1="161" x2="200" y2="186"/><line x1="230" y1="161" x2="230" y2="180"/>
  </g>
  <circle cx="170" cy="184" r="4" fill="#0EA5E9"/><circle cx="200" cy="190" r="4" fill="#10B981"/><circle cx="230" cy="184" r="4" fill="#0EA5E9"/>
  <text x="32" y="214" fill="#94A3B8" font-family="system-ui,sans-serif" font-size="11" font-weight="600" letter-spacing="2">CLOUD INFRASTRUCTURE</text>
</svg>
