<svg xmlns="http://www.w3.org/2000/svg" viewBox="0 0 400 240" fill="none">
  <defs>
    <linearGradient id="bg" x1="0" y1="0" x2="400" y2="240"><stop stop-color="#0A1430"/><stop offset="1" stop-color="#142a5e"/></linearGradient>
    <radialGradient id="glow" cx="0.5" cy="0.4" r="0.6"><stop stop-color="#0EA5E9" stop-opacity="0.25"/><stop offset="1" stop-color="#0EA5E9" stop-opacity="0"/></radialGradient>
    <pattern id="dots" width="20" height="20" patternUnits="userSpaceOnUse"><circle cx="1" cy="1" r="1" fill="#ffffff" opacity="0.05"/></pattern>
  </defs>
  <rect width="400" height="240" fill="url(#bg)"/>
  <rect width="400" height="240" fill="url(#dots)"/>
  <ellipse cx="200" cy="110" rx="160" ry="100" fill="url(#glow)"/>
  <g fill="#0EA5E9" opacity="0.25">
    <rect x="100" y="130" width="22" height="40" rx="3"/>
    <rect x="140" y="110" width="22" height="60" rx="3"/>
    <rect x="180" y="120" width="22" height="50" rx="3"/>
    <rect x="220" y="90" width="22" height="80" rx="3"/>
    <rect x="260" y="70" width="22" height="100" rx="3"/>
  </g>
  <polyline points="111,120 151,100 191,108 231,80 271,58" fill="none" stroke="#0EA5E9" stroke-width="2.5" stroke-linecap="round" stroke-linejoin="round"/>
  <circle cx="271" cy="58" r="6" fill="#10B981"/>
  <path d="M258 64l13 -6 6 13" stroke="#10B981" stroke-width="2" fill="none" stroke-linecap="round" stroke-linejoin="round"/>
  <text x="32" y="212" fill="#94A3B8" font-family="system-ui,sans-serif" font-size="11" font-weight="600" letter-spacing="2">DATA MARKETING</text>
</svg>
