<svg xmlns="http://www.w3.org/2000/svg" viewBox="0 0 400 240" fill="none">
  <defs>
    <linearGradient id="bg" x1="0" y1="0" x2="400" y2="240"><stop stop-color="#0A1430"/><stop offset="1" stop-color="#142a5e"/></linearGradient>
    <radialGradient id="glow" cx="0.5" cy="0.4" r="0.6"><stop stop-color="#0EA5E9" stop-opacity="0.25"/><stop offset="1" stop-color="#0EA5E9" stop-opacity="0"/></radialGradient>
    <pattern id="dots" width="20" height="20" patternUnits="userSpaceOnUse"><circle cx="1" cy="1" r="1" fill="#ffffff" opacity="0.05"/></pattern>
  </defs>
  <rect width="400" height="240" fill="url(#bg)"/>
  <rect width="400" height="240" fill="url(#dots)"/>
  <ellipse cx="200" cy="110" rx="160" ry="100" fill="url(#glow)"/>
  <g stroke="#0EA5E9" stroke-width="1" opacity="0.4">
    <line x1="120" y1="70" x2="200" y2="70"/><line x1="120" y1="70" x2="200" y2="120"/><line x1="120" y1="70" x2="200" y2="170"/>
    <line x1="120" y1="120" x2="200" y2="70"/><line x1="120" y1="120" x2="200" y2="120"/><line x1="120" y1="120" x2="200" y2="170"/>
    <line x1="120" y1="170" x2="200" y2="70"/><line x1="120" y1="170" x2="200" y2="120"/><line x1="120" y1="170" x2="200" y2="170"/>
    <line x1="200" y1="70" x2="280" y2="120"/><line x1="200" y1="120" x2="280" y2="120"/><line x1="200" y1="170" x2="280" y2="120"/>
  </g>
  <g fill="#0A1430" stroke="#0EA5E9" stroke-width="1.5">
    <circle cx="120" cy="70" r="8"/><circle cx="120" cy="120" r="8"/><circle cx="120" cy="170" r="8"/>
    <circle cx="200" cy="70" r="8"/><circle cx="200" cy="120" r="8"/><circle cx="200" cy="170" r="8"/>
  </g>
  <circle cx="280" cy="120" r="10" fill="#0EA5E9"/>
  <text x="32" y="212" fill="#94A3B8" font-family="system-ui,sans-serif" font-size="11" font-weight="600" letter-spacing="2">ML ENGINEERING</text>
</svg>
